<svg width="420" height="560" viewBox="0 0 420 560" fill="none" xmlns="http://www.w3.org/2000/svg">
  <rect width="420" height="560" rx="200" fill="#070707"/>
  <path d="M95 92C127 62 171 45 210 45C249 45 293 62 325 92" stroke="#F8FAFC" stroke-width="10" stroke-linecap="round"/>
  <text x="210" y="78" fill="#F8FAFC" font-family="Poppins, Arial, sans-serif" font-weight="700" font-size="34" text-anchor="middle" letter-spacing="7">ORIGINAL</text>
  <line x1="182" y1="112" x2="238" y2="112" stroke="#F97316" stroke-width="8" stroke-linecap="round"/>
  <text x="210" y="228" fill="#F8FAFC" font-family="Bebas Neue, Poppins, Arial, sans-serif" font-weight="700" font-size="128" text-anchor="middle" letter-spacing="6">CRUST</text>
  <text x="70" y="300" fill="#F97316" font-family="Bebas Neue, Poppins, Arial, sans-serif" font-weight="700" font-size="34" letter-spacing="2">EST.</text>
  <text x="210" y="305" fill="#F8FAFC" font-family="Bebas Neue, Poppins, Arial, sans-serif" font-weight="700" font-size="88" text-anchor="middle" letter-spacing="14">PIZZA</text>
  <text x="348" y="300" fill="#F97316" font-family="Bebas Neue, Poppins, Arial, sans-serif" font-weight="700" font-size="34" text-anchor="end" letter-spacing="2">2011</text>
  <line x1="120" y1="370" x2="160" y2="370" stroke="#F97316" stroke-width="6" stroke-linecap="round"/>
  <line x1="260" y1="370" x2="300" y2="370" stroke="#F97316" stroke-width="6" stroke-linecap="round"/>
  <circle cx="210" cy="370" r="38" stroke="#F97316" stroke-width="8"/>
  <text x="210" y="383" fill="#F8FAFC" font-family="Poppins, Arial, sans-serif" font-weight="700" font-size="44" text-anchor="middle">Cº</text>
  <path d="M95 488C127 518 171 535 210 535C249 535 293 518 325 488" stroke="#F8FAFC" stroke-width="10" stroke-linecap="round"/>
  <text x="210" y="520" fill="#F8FAFC" font-family="Poppins, Arial, sans-serif" font-weight="700" font-size="30" text-anchor="middle" letter-spacing="5">PIZZA &amp; MORE</text>
</svg>
